SplineFontDB: 3.2
FontName: SourceKangxi
FullName: SourceKangxi
FamilyName: SourceKangxi
Weight: Regular
Copyright: Copyright (c) 2020, Gamcheong Yuen
UComments: "2020-2-4: Created with FontForge (http://fontforge.org)"
Version: 001.000
ItalicAngle: 0
UnderlinePosition: 0
UnderlineWidth: 0
Ascent: 800
Descent: 200
InvalidEm: 0
LayerCount: 2
Layer: 0 0 "Back" 1
Layer: 1 0 "Fore" 0
XUID: [1021 936 -1826562539 586054]
FSType: 0
OS2Version: 0
OS2_WeightWidthSlopeOnly: 0
OS2_UseTypoMetrics: 1
CreationTime: 1580828602
ModificationTime: 1581172483
PfmFamily: 17
TTFWeight: 400
TTFWidth: 5
LineGap: 90
VLineGap: 0
OS2TypoAscent: 0
OS2TypoAOffset: 1
OS2TypoDescent: 0
OS2TypoDOffset: 1
OS2TypoLinegap: 90
OS2WinAscent: 0
OS2WinAOffset: 1
OS2WinDescent: 0
OS2WinDOffset: 1
HheadAscent: 0
HheadAOffset: 1
HheadDescent: 0
HheadDOffset: 1
OS2Vendor: 'PfEd'
MarkAttachClasses: 1
DEI: 91125
LangName: 1033
Encoding: Custom
UnicodeInterp: none
NameList: AGL For New Fonts
DisplaySize: -48
AntiAlias: 1
FitToEm: 0
WinInfo: 0 26 9
BeginPrivate: 0
EndPrivate
TeXData: 1 0 0 346030 173015 115343 0 1048576 115343 783286 444596 497025 792723 393216 433062 380633 303038 157286 324010 404750 52429 2506097 1059062 262144
BeginChars: 114 72

StartChar: uni4E00
Encoding: 0 19968 0
Width: 1000
Flags: H
LayerCount: 2
Fore
SplineSet
47 431 m 1
 777 431 l 1
 840 514 l 1
 840 514 913 455 957 413 c 1
 954 401 943 397 927 397 c 2
 57 397 l 1
 47 431 l 1
EndSplineSet
EndChar

StartChar: uni5F0C
Encoding: 1 24332 1
Width: 1000
Flags: H
LayerCount: 2
Fore
SplineSet
665 797 m 1
 674 808 l 1
 893 784 871 642 800 674 c 1
 780 719 716 772 665 797 c 1
408 257 m 1
 460 322 l 1
 460 322 519 277 555 243 c 1
 552 232 543 227 530 227 c 2
 54 227 l 1
 47 257 l 1
 408 257 l 1
948 149 m 1
 930 -2 l 1
 961 -37 964 -52 955 -63 c 0
 934 -96 872 -70 824 -36 c 0
 643 78 568 299 542 573 c 1
 57 573 l 1
 49 603 l 1
 540 603 l 1
 534 677 531 755 531 835 c 1
 636 823 l 1
 634 810 626 798 601 794 c 1
 600 730 602 665 606 603 c 1
 817 603 l 1
 867 664 l 1
 867 664 923 621 958 589 c 1
 955 578 947 573 932 573 c 2
 608 573 l 1
 628 334 693 125 856 30 c 0
 874 16 881 17 890 36 c 0
 902 61 922 110 934 151 c 1
 948 149 l 1
EndSplineSet
EndChar

StartChar: uni4E01
Encoding: 2 19969 2
Width: 1000
Flags: H
LayerCount: 2
Fore
SplineSet
799 728 m 1
 853 796 l 1
 853 796 915 749 953 715 c 1
 950 705 940 700 926 700 c 2
 544 700 l 1
 544 29 l 2
 544 -25 530 -65 421 -75 c 1
 418 -54 409 -36 393 -26 c 0
 372 -13 339 -4 279 3 c 1
 279 18 l 1
 279 18 420 9 448 9 c 0
 470 9 477 15 477 33 c 2
 477 700 l 1
 61 700 l 1
 52 728 l 1
 799 728 l 1
EndSplineSet
EndChar

StartChar: uni4E02
Encoding: 3 19970 3
Width: 1000
Flags: HW
LayerCount: 2
Fore
SplineSet
812 738 m 1
 864 800 l 1
 864 800 921 757 956 724 c 1
 954 713 944 708 930 708 c 2
 384 708 l 1
 365 640 334 548 304 464 c 1
 729 464 l 1
 769 507 l 1
 847 442 l 1
 839 434 825 429 804 426 c 1
 784 205 732 17 673 -34 c 0
 639 -62 598 -75 544 -75 c 1
 545 -55 540 -37 523 -27 c 0
 505 -15 453 -2 405 5 c 1
 406 23 l 1
 460 18 554 9 580 9 c 0
 603 9 614 12 628 23 c 0
 674 57 716 231 737 435 c 1
 294 435 l 1
 276 385 259 340 245 305 c 1
 229 296 202 296 172 307 c 1
 215 394 285 594 315 708 c 1
 52 708 l 1
 44 738 l 1
 812 738 l 1
EndSplineSet
EndChar

StartChar: uni4E03
Encoding: 4 19971 4
Width: 1000
Flags: HW
LayerCount: 2
Fore
SplineSet
813 544 m 1
 854 620 l 1
 854 620 918 583 958 557 c 1
 957 546 948 539 936 537 c 2
 419 447 l 1
 419 78 l 2
 419 46 432 34 494 34 c 2
 639 34 l 2
 708 34 758 35 780 38 c 0
 794 40 801 44 807 53 c 0
 816 72 831 133 847 210 c 1
 860 210 l 1
 863 47 l 1
 889 39 896 31 896 17 c 0
 896 -21 852 -31 637 -31 c 2
 489 -31 l 2
 386 -31 353 -10 353 61 c 2
 353 435 l 1
 53 383 l 1
 41 409 l 1
 353 464 l 1
 353 826 l 1
 455 814 l 1
 454 801 444 790 419 787 c 1
 419 475 l 1
 813 544 l 1
EndSplineSet
EndChar

StartChar: uni4E04
Encoding: 5 19972 5
Width: 1000
Flags: HW
LayerCount: 2
Fore
SplineSet
813 -1 m 1
 864 63 l 1
 864 63 923 18 958 -15 c 1
 955 -26 946 -31 931 -31 c 2
 51 -31 l 1
 43 -1 l 1
 463 -1 l 1
 463 810 l 1
 568 798 l 1
 565 785 556 775 533 771 c 1
 533 -1 l 1
 813 -1 l 1
EndSplineSet
EndChar

StartChar: uni4E05
Encoding: 6 19973 6
Width: 1000
Flags: HW
LayerCount: 2
Fore
SplineSet
798 739 m 1
 855 810 l 1
 855 810 920 760 959 725 c 1
 956 714 947 709 932 709 c 2
 534 709 l 1
 534 -53 l 2
 534 -60 509 -76 474 -76 c 2
 462 -76 l 1
 462 709 l 1
 50 709 l 1
 42 739 l 1
 798 739 l 1
EndSplineSet
EndChar

StartChar: uni4E07
Encoding: 7 19975 7
Width: 1000
Flags: HW
LayerCount: 2
Fore
SplineSet
811 722 m 1
 862 786 l 1
 862 786 919 741 954 709 c 1
 953 699 943 694 928 694 c 2
 440 694 l 1
 437 622 434 549 423 476 c 1
 716 476 l 1
 756 518 l 1
 832 454 l 1
 825 447 811 441 790 439 c 1
 778 211 745 25 694 -24 c 0
 664 -51 623 -64 572 -64 c 1
 572 -44 567 -27 550 -16 c 0
 533 -4 478 8 431 15 c 1
 432 33 l 1
 485 27 579 19 604 19 c 0
 625 19 635 22 648 32 c 0
 685 64 712 240 725 447 c 1
 419 447 l 1
 386 255 302 68 63 -81 c 1
 48 -64 l 1
 345 162 360 444 365 694 c 1
 56 694 l 1
 47 722 l 1
 811 722 l 1
EndSplineSet
EndChar

StartChar: uni4E08
Encoding: 8 19976 8
Width: 1000
Flags: HW
LayerCount: 2
Fore
SplineSet
932 591 m 2
 547 591 l 1
 544 434 531 306 475 200 c 1
 594 92 757 26 954 -8 c 1
 952 -19 l 1
 921 -23 895 -42 884 -75 c 1
 699 -31 554 41 447 154 c 1
 377 54 257 -22 53 -80 c 1
 44 -62 l 1
 239 6 347 91 406 202 c 1
 345 281 300 377 270 493 c 1
 252 462 228 424 212 402 c 1
 217 391 214 382 209 377 c 1
 156 441 l 1
 186 460 238 499 265 524 c 1
 275 560 l 1
 309 546 l 1
 284 516 l 1
 314 409 363 321 428 248 c 1
 466 344 476 457 478 591 c 1
 54 591 l 1
 46 621 l 1
 478 621 l 1
 479 687 478 758 478 835 c 1
 585 824 l 1
 583 809 573 798 549 795 c 1
 548 734 548 676 548 621 c 1
 814 621 l 1
 865 684 l 1
 865 684 923 639 958 607 c 1
 955 596 947 591 932 591 c 2
EndSplineSet
EndChar

StartChar: uni4E09
Encoding: 9 19977 9
Width: 1000
Flags: HW
LayerCount: 2
Fore
SplineSet
40 34 m 1
 809 34 l 1
 865 104 l 1
 865 104 928 56 968 21 c 1
 965 10 955 5 940 5 c 2
 49 5 l 1
 40 34 l 1
169 394 m 1
 671 394 l 1
 723 459 l 1
 723 459 782 413 819 380 c 1
 817 369 807 364 793 364 c 2
 177 364 l 1
 169 394 l 1
96 719 m 1
 763 719 l 1
 817 786 l 1
 817 786 878 740 916 706 c 1
 914 695 903 690 889 690 c 2
 105 690 l 1
 96 719 l 1
EndSplineSet
EndChar

StartChar: uni5F0E
Encoding: 10 24334 10
Width: 1000
Flags: HW
LayerCount: 2
Fore
SplineSet
672 802 m 1
 681 812 l 1
 904 783 875 644 805 678 c 1
 784 722 720 775 672 802 c 1
449 43 m 1
 499 106 l 1
 499 106 555 61 591 30 c 1
 588 19 578 14 564 14 c 2
 58 14 l 1
 50 43 l 1
 449 43 l 1
385 433 m 1
 431 490 l 1
 431 490 483 450 516 420 c 1
 513 409 504 404 490 404 c 2
 93 404 l 1
 85 433 l 1
 385 433 l 1
368 241 m 1
 413 298 l 1
 413 298 465 258 498 228 c 1
 496 217 485 212 471 212 c 2
 113 212 l 1
 105 241 l 1
 368 241 l 1
945 148 m 1
 927 -3 l 1
 957 -39 960 -54 952 -65 c 0
 928 -96 869 -69 822 -35 c 0
 645 85 572 314 550 596 c 1
 57 596 l 1
 49 624 l 1
 548 624 l 1
 543 692 541 762 541 835 c 1
 644 823 l 1
 642 810 633 798 609 795 c 1
 608 737 609 680 613 624 c 1
 818 624 l 1
 867 685 l 1
 867 685 922 642 955 612 c 1
 953 601 944 596 930 596 c 2
 614 596 l 1
 631 349 693 130 856 30 c 0
 872 16 879 17 888 36 c 0
 901 61 919 109 931 150 c 1
 945 148 l 1
EndSplineSet
EndChar

StartChar: uni4E0A
Encoding: 11 19978 11
Width: 1000
Flags: HW
LayerCount: 2
Fore
SplineSet
813 4 m 1
 865 68 l 1
 865 68 924 23 959 -10 c 1
 956 -21 948 -26 933 -26 c 2
 50 -26 l 1
 42 4 l 1
 437 4 l 1
 437 828 l 1
 541 817 l 1
 538 803 530 793 505 789 c 1
 505 465 l 1
 735 465 l 1
 787 530 l 1
 787 530 844 484 879 452 c 1
 876 441 868 436 854 436 c 2
 505 436 l 1
 505 4 l 1
 813 4 l 1
EndSplineSet
EndChar

StartChar: uni4E0B
Encoding: 12 19979 12
Width: 1000
Flags: HW
LayerCount: 2
Fore
SplineSet
809 754 m 1
 863 820 l 1
 863 820 923 774 960 740 c 1
 957 729 949 724 934 724 c 2
 517 724 l 1
 517 561 l 1
 854 484 846 312 759 347 c 1
 714 412 605 491 517 539 c 1
 517 -55 l 2
 517 -62 493 -79 460 -79 c 2
 450 -79 l 1
 450 724 l 1
 50 724 l 1
 42 754 l 1
 809 754 l 1
EndSplineSet
EndChar

StartChar: uni4E0C
Encoding: 13 19980 13
Width: 1000
Flags: H
LayerCount: 2
Fore
SplineSet
796 731 m 1
 848 794 l 1
 848 794 906 750 943 717 c 1
 941 706 930 702 916 702 c 2
 695 702 l 1
 695 -57 l 2
 695 -63 673 -79 639 -79 c 2
 628 -79 l 1
 628 702 l 1
 371 702 l 1
 371 474 l 2
 370 280 334 62 67 -77 c 1
 56 -64 l 1
 271 91 305 281 305 473 c 2
 305 702 l 1
 67 702 l 1
 59 731 l 1
 796 731 l 1
EndSplineSet
EndChar

StartChar: uni4E0D
Encoding: 14 19981 14
Width: 1000
Flags: H
LayerCount: 2
Fore
SplineSet
574 518 m 1
 584 530 l 1
 990 399 981 212 889 252 c 1
 834 340 682 456 574 518 c 1
799 753 m 1
 853 819 l 1
 853 819 912 773 949 740 c 1
 947 729 937 724 923 724 c 2
 621 724 l 1
 591 673 555 622 515 574 c 1
 562 556 l 1
 559 547 549 541 532 539 c 1
 532 -55 l 2
 532 -60 503 -75 478 -75 c 2
 466 -75 l 1
 466 520 l 1
 350 398 202 292 45 216 c 1
 36 229 l 1
 240 352 437 543 527 724 c 1
 61 724 l 1
 52 753 l 1
 799 753 l 1
EndSplineSet
EndChar

StartChar: uni4E0E
Encoding: 15 19982 15
Width: 1000
Flags: H
LayerCount: 2
Fore
SplineSet
559 236 m 1
 609 298 l 1
 609 298 665 255 700 223 c 1
 698 212 688 207 674 207 c 2
 57 207 l 1
 50 236 l 1
 559 236 l 1
358 791 m 1
 358 655 l 1
 740 655 l 1
 791 718 l 1
 791 718 849 675 884 642 c 1
 881 631 872 626 858 626 c 2
 358 626 l 1
 358 450 l 1
 780 450 l 1
 819 493 l 1
 896 428 l 1
 889 420 877 415 855 412 c 1
 839 194 800 13 746 -36 c 0
 715 -65 673 -78 621 -78 c 1
 621 -58 616 -39 599 -30 c 0
 579 -17 524 -4 474 3 c 1
 475 20 l 1
 532 15 630 6 654 6 c 0
 677 6 688 9 702 19 c 0
 740 51 773 221 789 421 c 1
 98 421 l 1
 90 450 l 1
 290 450 l 1
 290 830 l 1
 394 819 l 1
 391 805 383 795 358 791 c 1
EndSplineSet
EndChar

StartChar: uni4E0F
Encoding: 16 19983 16
Width: 1000
Flags: H
LayerCount: 2
Fore
SplineSet
809 502 m 1
 529 502 l 1
 529 292 l 1
 797 292 l 1
 802 355 806 426 809 502 c 1
907 722 m 2
 529 722 l 1
 529 531 l 1
 799 531 l 1
 839 574 l 1
 916 508 l 1
 908 501 895 495 874 493 c 1
 864 214 840 17 791 -35 c 0
 763 -64 723 -78 673 -77 c 1
 674 -57 669 -39 654 -28 c 0
 636 -16 588 -5 544 2 c 1
 545 19 l 1
 595 14 678 7 702 7 c 0
 722 7 731 10 742 20 c 0
 766 41 783 131 794 262 c 1
 241 262 l 1
 241 169 l 2
 241 162 212 147 188 147 c 2
 175 147 l 1
 175 614 l 1
 276 603 l 1
 274 589 265 580 241 576 c 1
 241 292 l 1
 462 292 l 1
 462 722 l 1
 80 722 l 1
 71 752 l 1
 791 752 l 1
 842 814 l 1
 842 814 898 770 934 738 c 1
 931 727 922 722 907 722 c 2
EndSplineSet
EndChar

StartChar: u201A4
Encoding: 17 131492 17
Width: 1000
Flags: H
LayerCount: 2
Fore
SplineSet
518 777 m 1
 430 627 254 450 52 348 c 1
 45 363 l 1
 223 481 398 679 462 838 c 1
 577 808 l 1
 573 796 563 791 536 788 c 1
 633 649 789 519 974 440 c 1
 973 425 l 1
 942 417 923 394 913 367 c 1
 739 469 597 614 518 777 c 1
474 561 m 1
 578 549 l 1
 575 535 566 525 541 522 c 1
 541 23 l 2
 541 -31 527 -71 418 -81 c 1
 415 -60 406 -42 390 -32 c 0
 369 -19 336 -10 276 -3 c 1
 276 12 l 1
 276 12 417 3 445 3 c 0
 467 3 474 9 474 27 c 2
 474 561 l 1
EndSplineSet
EndChar

StartChar: u20000
Encoding: 18 131072 18
Width: 1000
Flags: H
LayerCount: 2
Fore
SplineSet
54 738 m 1
 822 738 l 1
 874 800 l 1
 874 800 931 757 966 724 c 1
 964 713 954 708 940 708 c 2
 621 708 l 1
 621 327 l 2
 621 320 596 304 561 304 c 2
 549 304 l 1
 549 389 l 1
 197 389 l 1
 197 68 l 1
 723 68 l 1
 775 130 l 1
 775 130 832 87 867 54 c 1
 865 43 855 38 841 38 c 2
 197 38 l 1
 197 -54 l 2
 197 -61 168 -76 144 -76 c 2
 131 -76 l 1
 131 451 l 1
 207 419 l 1
 549 419 l 1
 549 708 l 1
 62 708 l 1
 54 738 l 1
EndSplineSet
EndChar

StartChar: u2011E
Encoding: 19 131358 19
Width: 1000
Flags: H
LayerCount: 2
Fore
SplineSet
60 97 m 5
 801 97 l 5
 859 170 l 5
 859 170 924 120 965 83 c 5
 963 72 952 67 938 67 c 6
 69 67 l 5
 60 97 l 5
253 653 m 5
 609 653 l 5
 664 723 l 5
 664 723 727 675 767 639 c 5
 764 628 753 623 739 623 c 6
 261 623 l 5
 253 653 l 5
EndSplineSet
EndChar

StartChar: u2011F
Encoding: 20 131359 20
Width: 1000
Flags: H
LayerCount: 2
Fore
SplineSet
60 653 m 5
 801 653 l 5
 859 726 l 5
 859 726 924 676 965 639 c 5
 963 628 952 623 938 623 c 6
 69 623 l 5
 60 653 l 5
253 103 m 5
 609 103 l 5
 664 173 l 5
 664 173 727 125 767 89 c 5
 764 78 753 73 739 73 c 6
 261 73 l 5
 253 103 l 5
EndSplineSet
EndChar

StartChar: u20003
Encoding: 21 131075 21
Width: 1000
Flags: H
LayerCount: 2
Fore
SplineSet
883 58 m 1
 883 58 941 13 975 -20 c 1
 972 -31 963 -36 949 -36 c 2
 59 -36 l 1
 51 -6 l 1
 266 -6 l 1
 266 789 l 1
 342 757 l 1
 682 757 l 1
 717 802 l 1
 805 734 l 1
 799 725 785 720 760 716 c 1
 760 -6 l 1
 833 -6 l 1
 883 58 l 1
694 -6 m 1
 694 727 l 1
 331 727 l 1
 331 -6 l 1
 694 -6 l 1
EndSplineSet
EndChar

StartChar: u2002D
Encoding: 47 131117 22
Width: 1000
Flags: H
LayerCount: 2
Fore
SplineSet
739 341 m 5
 816 276 l 5
 809 268 797 263 775 260 c 5
 759 42 743 6 703 -36 c 4
 672 -65 635 -78 583 -78 c 5
 583 -58 578 -39 561 -30 c 4
 541 -17 486 -4 436 3 c 5
 437 20 l 5
 494 15 592 6 616 6 c 4
 637 6 644 7 657 19 c 4
 680 43 690 71 709 269 c 5
 191 269 l 5
 183 298 l 5
 700 298 l 5
 739 341 l 5
576 527 m 5
 667 436 828 364 969 336 c 5
 968 324 l 5
 941 319 918 298 910 265 c 5
 764 314 627 405 548 527 c 5
 542 527 l 5
 542 326 l 6
 542 321 520 304 487 304 c 6
 477 304 l 5
 477 511 l 5
 381 399 233 312 62 258 c 5
 54 274 l 5
 195 335 318 427 398 527 c 5
 75 527 l 5
 66 556 l 5
 477 556 l 5
 477 748 l 5
 128 748 l 5
 119 778 l 5
 771 778 l 5
 821 843 l 5
 821 843 879 798 914 764 c 5
 911 753 901 748 887 748 c 6
 542 748 l 5
 542 556 l 5
 618 556 l 5
 649 607 685 681 707 735 c 5
 811 704 l 5
 807 692 796 684 773 686 c 5
 741 646 691 595 644 556 c 5
 821 556 l 5
 871 617 l 5
 871 617 926 574 961 543 c 5
 958 532 949 527 935 527 c 6
 576 527 l 5
249 722 m 5
 445 653 381 515 316 568 c 5
 310 618 273 680 238 715 c 5
 249 722 l 5
EndSplineSet
EndChar

StartChar: u2001A
Encoding: 22 131098 23
Width: 1000
Flags: H
LayerCount: 2
Fore
SplineSet
951 750 m 5
 949 739 938 734 924 734 c 6
 506 734 l 5
 460 656 397 567 343 504 c 5
 464 510 611 517 764 526 c 5
 713 575 653 621 602 653 c 5
 612 664 l 5
 966 547 948 359 861 403 c 5
 845 435 818 470 785 504 c 5
 722 494 651 484 569 474 c 5
 643 458 l 5
 641 445 628 441 602 440 c 5
 588 409 570 378 549 349 c 5
 576 339 l 5
 573 330 563 324 546 322 c 5
 546 -60 l 6
 546 -65 517 -80 492 -80 c 6
 480 -80 l 5
 480 268 l 5
 385 173 252 94 92 37 c 5
 82 52 l 5
 303 150 470 306 530 470 c 5
 428 458 309 444 173 429 c 5
 166 418 156 411 146 409 c 5
 105 496 l 5
 152 497 222 499 307 503 c 5
 344 568 389 663 416 734 c 5
 84 734 l 5
 76 763 l 5
 806 763 l 5
 857 826 l 5
 857 826 915 782 951 750 c 5
586 334 m 5
 992 203 975 24 883 64 c 5
 828 152 684 260 576 322 c 5
 586 334 l 5
EndSplineSet
EndChar

StartChar: u20650
Encoding: 23 132688 24
Width: 1000
Flags: H
LayerCount: 2
Fore
SplineSet
799 780 m 5
 879 719 l 5
 873 711 857 704 836 700 c 5
 836 460 l 6
 835 454 804 439 784 439 c 6
 774 439 l 5
 774 468 l 5
 733 468 218 468 195 468 c 5
 186 498 l 5
 235 498 332 498 382 498 c 5
 382 591 l 5
 336 591 248 591 203 591 c 5
 194 620 l 5
 243 620 332 620 382 620 c 5
 382 711 l 5
 336 711 241 711 196 711 c 5
 187 741 l 5
 236 741 332 741 382 741 c 5
 382 838 l 5
 474 829 l 5
 472 815 464 807 442 803 c 5
 442 741 l 5
 573 741 l 5
 573 838 l 5
 668 828 l 5
 666 815 657 805 634 802 c 5
 634 741 l 5
 764 741 l 5
 799 780 l 5
573 498 m 5
 573 591 l 5
 442 591 l 5
 442 498 l 5
 573 498 l 5
573 620 m 5
 573 711 l 5
 442 711 l 5
 442 620 l 5
 573 620 l 5
774 498 m 5
 774 591 l 5
 634 591 l 5
 634 498 l 5
 774 498 l 5
774 620 m 5
 774 711 l 5
 634 711 l 5
 634 620 l 5
 774 620 l 5
843 367 m 5
 205 367 l 5
 211 288 181 235 149 212 c 4
 123 191 85 189 72 213 c 4
 62 236 75 258 97 270 c 4
 140 297 179 367 171 445 c 5
 188 446 l 5
 194 429 198 412 201 397 c 5
 841 397 l 5
 885 442 l 5
 965 364 l 5
 959 357 947 356 927 354 c 5
 895 315 839 256 797 221 c 5
 784 228 l 5
 802 264 826 323 843 367 c 5
942 86 m 5
 945 2 l 5
 966 -5 971 -12 971 -25 c 4
 971 -53 942 -64 807 -64 c 6
 715 -64 l 6
 643 -64 632 -50 632 -5 c 6
 632 242 l 5
 352 242 l 5
 352 206 l 6
 352 132 322 -30 66 -78 c 5
 60 -62 l 5
 251 -8 289 132 289 206 c 6
 289 304 l 5
 364 272 l 5
 623 272 l 5
 658 308 l 5
 729 247 l 5
 723 240 714 235 695 233 c 5
 695 8 l 6
 695 -4 698 -6 727 -6 c 6
 811 -6 l 6
 844 -6 875 -6 886 -5 c 4
 895 -5 900 -3 904 3 c 4
 910 14 920 48 930 86 c 5
 942 86 l 5
EndSplineSet
EndChar

StartChar: uni4E10
Encoding: 24 19984 25
Width: 1000
Flags: H
LayerCount: 2
Fore
SplineSet
539 722 m 1
 539 553 l 1
 736 553 l 1
 786 616 l 1
 786 616 841 572 876 540 c 1
 874 530 864 525 850 525 c 2
 539 525 l 1
 539 348 l 1
 810 348 l 1
 849 388 l 1
 924 325 l 1
 917 318 904 313 883 310 c 1
 870 132 835 -3 788 -43 c 0
 760 -66 720 -78 674 -78 c 1
 674 -58 669 -40 654 -30 c 0
 637 -19 590 -9 548 -2 c 1
 549 16 l 1
 596 11 681 4 705 4 c 0
 724 4 734 6 745 15 c 0
 777 40 804 163 818 319 c 1
 252 319 l 1
 252 225 l 2
 252 218 223 203 199 203 c 2
 186 203 l 1
 186 646 l 1
 287 635 l 1
 285 621 276 612 252 608 c 1
 252 348 l 1
 472 348 l 1
 472 722 l 1
 90 722 l 1
 81 752 l 1
 801 752 l 1
 852 814 l 1
 852 814 908 770 944 738 c 1
 941 727 932 722 917 722 c 2
 539 722 l 1
EndSplineSet
EndChar

StartChar: uni4E11
Encoding: 25 19985 26
Width: 1000
Flags: H
LayerCount: 2
Fore
SplineSet
649 5 m 1
 672 376 l 1
 388 376 l 1
 373 240 357 105 342 5 c 1
 649 5 l 1
693 725 m 1
 423 725 l 1
 416 634 404 521 392 406 c 1
 673 406 l 1
 693 725 l 1
938 376 m 2
 739 376 l 1
 717 5 l 1
 818 5 l 1
 869 70 l 1
 869 70 925 25 958 -9 c 1
 956 -20 947 -25 933 -25 c 2
 58 -25 l 1
 49 5 l 1
 277 5 l 1
 292 106 308 241 323 376 c 1
 48 376 l 1
 41 406 l 1
 327 406 l 1
 339 521 351 635 358 725 c 1
 143 725 l 1
 134 755 l 1
 685 755 l 1
 721 799 l 1
 796 733 l 1
 789 725 779 721 759 718 c 1
 740 406 l 1
 827 406 l 1
 875 470 l 1
 875 470 931 425 964 392 c 1
 961 381 952 376 938 376 c 2
EndSplineSet
EndChar

StartChar: u20007
Encoding: 26 131079 27
Width: 1000
Flags: H
LayerCount: 2
Fore
SplineSet
883 58 m 1
 883 58 941 13 975 -20 c 1
 972 -31 963 -36 949 -36 c 2
 59 -36 l 1
 51 -6 l 1
 266 -6 l 1
 266 789 l 1
 342 757 l 1
 682 757 l 1
 717 802 l 1
 805 734 l 1
 799 725 785 720 760 716 c 1
 760 -6 l 1
 833 -6 l 1
 883 58 l 1
694 -6 m 1
 694 482 l 1
 331 482 l 1
 331 -6 l 1
 694 -6 l 1
694 512 m 1
 694 727 l 1
 331 727 l 1
 331 512 l 1
 694 512 l 1
EndSplineSet
EndChar

StartChar: u20008
Encoding: 27 131080 28
Width: 1000
Flags: H
LayerCount: 2
Fore
SplineSet
771 15 m 5
 833 15 l 5
 884 79 l 5
 884 79 944 35 979 2 c 5
 976 -9 966 -14 952 -14 c 6
 57 -14 l 5
 48 15 l 5
 233 15 l 5
 233 765 l 5
 332 739 l 5
 497 765 682 800 783 841 c 5
 863 766 l 5
 853 757 834 757 809 767 c 5
 654 735 480 720 299 711 c 5
 299 573 l 5
 547 573 l 5
 583 614 l 5
 664 551 l 5
 657 543 642 535 621 531 c 5
 608 459 600 420 583 334 c 5
 696 334 l 5
 733 375 l 5
 814 312 l 5
 807 304 791 296 771 292 c 5
 771 15 l 5
299 15 m 5
 706 15 l 5
 706 304 l 5
 578 304 l 5
 576 294 575 287 573 277 c 5
 560 267 533 265 502 272 c 5
 522 353 541 448 557 543 c 5
 299 543 l 5
 299 15 l 5
EndSplineSet
EndChar

StartChar: uni4E14
Encoding: 28 19988 29
Width: 1000
Flags: H
LayerCount: 2
Fore
SplineSet
321 229 m 1
 321 -6 l 1
 684 -6 l 1
 684 229 l 1
 321 229 l 1
684 727 m 1
 321 727 l 1
 321 512 l 1
 684 512 l 1
 684 727 l 1
684 259 m 1
 684 482 l 1
 321 482 l 1
 321 259 l 1
 684 259 l 1
823 -6 m 1
 873 58 l 1
 873 58 931 13 965 -20 c 1
 962 -31 953 -36 939 -36 c 2
 49 -36 l 1
 41 -6 l 1
 256 -6 l 1
 256 789 l 1
 332 757 l 1
 672 757 l 1
 707 802 l 1
 795 734 l 1
 789 725 775 720 750 716 c 1
 750 -6 l 1
 823 -6 l 1
EndSplineSet
EndChar

StartChar: uni4E15
Encoding: 29 19989 30
Width: 1000
Flags: H
LayerCount: 2
Fore
SplineSet
66 244 m 1
 56 258 l 1
 255 372 438 549 526 723 c 1
 86 723 l 1
 78 752 l 1
 785 752 l 1
 835 814 l 1
 835 814 892 771 929 739 c 1
 926 728 916 723 902 723 c 2
 616 723 l 1
 592 680 563 639 531 599 c 1
 560 588 l 1
 557 579 547 573 530 570 c 1
 530 68 l 2
 529 63 501 47 475 47 c 2
 463 47 l 1
 463 523 l 1
 353 410 215 314 66 244 c 1
583 530 m 1
 594 541 l 1
 980 415 968 227 880 269 c 1
 831 357 686 469 583 530 c 1
792 -6 m 1
 845 58 l 1
 845 58 904 14 941 -20 c 1
 938 -31 929 -36 914 -36 c 2
 73 -36 l 1
 64 -6 l 1
 792 -6 l 1
EndSplineSet
EndChar

StartChar: uni4E16
Encoding: 30 19990 31
Width: 1000
Flags: H
LayerCount: 2
Fore
SplineSet
707 281 m 1
 707 535 l 1
 514 535 l 1
 514 281 l 1
 707 281 l 1
830 563 m 1
 878 625 l 1
 878 625 934 582 967 550 c 1
 964 540 954 535 941 535 c 2
 773 535 l 1
 773 207 l 2
 773 199 744 184 719 184 c 2
 707 184 l 1
 707 251 l 1
 514 251 l 1
 514 188 l 2
 514 179 486 164 462 164 c 2
 450 164 l 1
 450 535 l 1
 263 535 l 1
 263 35 l 1
 789 35 l 1
 839 101 l 1
 839 101 898 54 934 22 c 1
 931 11 921 6 907 6 c 2
 263 6 l 1
 263 -51 l 2
 263 -61 235 -77 211 -77 c 2
 198 -77 l 1
 198 535 l 1
 47 535 l 1
 39 563 l 1
 198 563 l 1
 198 815 l 1
 298 804 l 1
 295 790 289 781 263 777 c 1
 263 563 l 1
 450 563 l 1
 450 834 l 1
 550 823 l 1
 548 809 540 799 514 796 c 1
 514 563 l 1
 707 563 l 1
 707 827 l 1
 809 816 l 1
 806 802 797 792 773 788 c 1
 773 563 l 1
 830 563 l 1
EndSplineSet
EndChar

StartChar: uni534B
Encoding: 31 21323 32
Width: 1000
Flags: H
LayerCount: 2
Fore
SplineSet
886 374 m 1
 886 374 940 331 972 301 c 1
 969 290 961 285 947 285 c 2
 753 285 l 1
 753 11 l 1
 793 11 l 1
 845 75 l 1
 845 75 904 30 939 -3 c 1
 936 -14 928 -19 913 -19 c 2
 93 -19 l 1
 85 11 l 1
 261 11 l 1
 261 285 l 1
 60 285 l 1
 52 313 l 1
 261 313 l 1
 261 553 l 1
 362 542 l 1
 360 528 351 518 325 514 c 1
 325 313 l 1
 473 313 l 1
 473 605 l 1
 140 605 l 1
 131 635 l 1
 473 635 l 1
 473 837 l 1
 574 826 l 1
 572 812 563 803 538 799 c 1
 538 635 l 1
 767 635 l 1
 813 694 l 1
 813 694 867 653 900 621 c 1
 898 610 888 605 874 605 c 2
 538 605 l 1
 538 313 l 1
 688 313 l 1
 688 554 l 1
 789 543 l 1
 786 529 778 519 753 515 c 1
 753 313 l 1
 839 313 l 1
 886 374 l 1
325 11 m 1
 688 11 l 1
 688 285 l 1
 325 285 l 1
 325 11 l 1
EndSplineSet
EndChar

StartChar: u2000D
Encoding: 32 131085 33
Width: 1000
Flags: H
LayerCount: 2
Fore
SplineSet
888 541 m 1
 888 541 944 498 977 466 c 1
 974 456 964 451 951 451 c 2
 770 451 l 1
 770 40 l 1
 803 40 l 1
 849 106 l 1
 849 106 908 59 944 27 c 1
 941 16 931 11 917 11 c 2
 273 11 l 1
 273 -51 l 2
 273 -61 241 -77 217 -77 c 2
 204 -77 l 1
 204 451 l 1
 57 451 l 1
 49 479 l 1
 204 479 l 1
 204 815 l 1
 304 804 l 1
 301 790 295 781 269 777 c 1
 269 479 l 1
 455 479 l 1
 455 834 l 1
 555 823 l 1
 553 809 545 799 519 796 c 1
 519 479 l 1
 704 479 l 1
 704 827 l 1
 806 816 l 1
 803 802 794 792 770 788 c 1
 770 479 l 1
 835 479 l 1
 888 541 l 1
269 451 m 1
 273 40 l 1
 455 40 l 1
 455 451 l 1
 269 451 l 1
519 40 m 1
 704 40 l 1
 704 451 l 1
 519 451 l 1
 519 40 l 1
EndSplineSet
EndChar

StartChar: uni4E18
Encoding: 33 19992 34
Width: 1000
Flags: H
LayerCount: 2
Fore
SplineSet
289 424 m 1
 289 23 l 1
 583 23 l 1
 583 424 l 1
 289 424 l 1
823 23 m 1
 874 87 l 1
 874 87 934 43 969 10 c 1
 966 -1 956 -6 942 -6 c 2
 47 -6 l 1
 38 23 l 1
 223 23 l 1
 223 729 l 1
 322 703 l 1
 488 732 672 781 773 822 c 1
 853 747 l 1
 843 738 824 738 799 748 c 1
 668 718 471 688 289 677 c 1
 289 453 l 1
 769 453 l 1
 819 515 l 1
 819 515 876 472 911 440 c 1
 908 429 899 424 885 424 c 2
 649 424 l 1
 649 23 l 1
 823 23 l 1
EndSplineSet
EndChar

StartChar: uni3633
Encoding: 34 13875 35
Width: 1000
Flags: H
LayerCount: 2
Fore
SplineSet
759 368 m 2
 655 368 l 2
 576 368 560 385 560 434 c 2
 560 835 l 1
 655 824 l 1
 653 812 644 802 623 799 c 1
 623 596 l 1
 701 637 793 696 837 729 c 1
 902 659 l 1
 896 653 885 653 871 660 c 1
 820 637 716 598 623 574 c 1
 623 447 l 2
 623 430 628 425 666 425 c 2
 762 425 l 2
 805 425 839 425 852 426 c 0
 862 427 867 429 872 437 c 0
 879 450 890 494 900 541 c 1
 913 541 l 1
 916 434 l 1
 938 426 945 420 945 407 c 0
 945 377 912 368 759 368 c 2
107 365 m 1
 60 441 l 1
 114 449 231 476 355 503 c 1
 355 652 l 1
 89 652 l 1
 80 681 l 1
 355 681 l 1
 355 843 l 1
 456 831 l 1
 454 817 445 807 420 804 c 1
 420 337 l 2
 420 328 392 315 368 315 c 2
 355 315 l 1
 355 482 l 1
 298 457 224 425 127 389 c 1
 124 377 116 369 107 365 c 1
812 5 m 1
 860 67 l 1
 860 67 918 24 954 -9 c 1
 951 -20 941 -25 927 -25 c 2
 52 -25 l 1
 44 5 l 1
 470 5 l 1
 470 171 l 1
 165 171 l 1
 157 201 l 1
 470 201 l 1
 470 346 l 1
 572 335 l 1
 570 321 560 311 536 307 c 1
 536 201 l 1
 719 201 l 1
 766 260 l 1
 766 260 821 219 854 187 c 1
 852 176 843 171 829 171 c 2
 536 171 l 1
 536 5 l 1
 812 5 l 1
EndSplineSet
EndChar

StartChar: uni3400
Encoding: 35 13312 36
Width: 1000
Flags: H
LayerCount: 2
Fore
SplineSet
813 0 m 1
 864 64 l 1
 864 64 923 19 958 -14 c 1
 955 -25 946 -30 931 -30 c 2
 51 -30 l 1
 42 0 l 1
 315 0 l 1
 315 475 l 1
 83 475 l 1
 74 505 l 1
 315 505 l 1
 315 833 l 1
 418 822 l 1
 416 808 407 798 382 794 c 1
 382 0 l 1
 596 0 l 1
 596 833 l 1
 700 822 l 1
 697 808 688 798 663 794 c 1
 663 506 l 1
 810 506 l 1
 856 562 l 1
 856 562 908 522 942 492 c 1
 939 481 929 476 915 476 c 2
 663 476 l 1
 663 0 l 1
 813 0 l 1
EndSplineSet
EndChar

StartChar: uni4E19
Encoding: 36 19993 37
Width: 1000
Flags: H
LayerCount: 2
Fore
SplineSet
806 751 m 1
 858 814 l 1
 858 814 915 770 952 737 c 1
 949 726 939 721 925 721 c 2
 489 721 l 1
 496 662 505 608 518 559 c 1
 789 559 l 1
 823 601 l 1
 908 537 l 1
 901 530 884 521 865 518 c 1
 865 18 l 2
 865 -34 852 -67 748 -77 c 1
 744 -57 737 -40 722 -31 c 0
 704 -21 673 -11 619 -5 c 1
 619 11 l 1
 619 11 744 2 772 2 c 0
 793 2 798 9 798 25 c 2
 798 530 l 1
 526 530 l 1
 571 381 653 277 790 214 c 1
 789 205 l 1
 764 204 743 189 731 163 c 1
 613 234 546 335 507 475 c 1
 469 356 395 233 233 145 c 1
 219 159 l 1
 365 266 431 411 456 530 c 1
 206 530 l 1
 206 -52 l 2
 206 -60 181 -77 152 -77 c 2
 141 -77 l 1
 141 593 l 1
 212 559 l 1
 488 559 l 1
 479 609 472 663 467 721 c 1
 63 721 l 1
 55 751 l 1
 806 751 l 1
EndSplineSet
EndChar

StartChar: uni3401
Encoding: 37 13313 38
Width: 1000
Flags: H
LayerCount: 2
Fore
SplineSet
876 811 m 5
 876 811 934 767 970 733 c 5
 968 722 958 717 943 717 c 6
 488 717 l 5
 495 664 503 620 515 570 c 5
 796 570 l 5
 833 610 l 5
 912 548 l 5
 907 540 890 532 870 528 c 5
 870 -49 l 6
 869 -56 838 -73 815 -73 c 6
 806 -73 l 5
 806 2 l 5
 199 2 l 5
 199 -51 l 6
 199 -59 174 -76 145 -76 c 6
 134 -76 l 5
 134 604 l 5
 206 570 l 5
 485 570 l 5
 477 616 470 665 465 717 c 5
 69 717 l 5
 60 747 l 5
 824 747 l 5
 876 811 l 5
806 541 m 5
 525 541 l 5
 570 392 660 293 797 230 c 5
 795 220 l 5
 770 219 748 205 736 179 c 5
 618 250 545 346 506 486 c 5
 468 367 378 240 225 158 c 5
 210 171 l 5
 356 278 430 422 455 541 c 5
 199 541 l 5
 199 32 l 5
 806 32 l 5
 806 541 l 5
EndSplineSet
EndChar

StartChar: u2002C
Encoding: 38 131116 39
Width: 1000
Flags: H
LayerCount: 2
Fore
SplineSet
488 390 m 5
 589 363 l 5
 585 351 577 344 553 345 c 5
 543 317 531 288 517 260 c 5
 820 148 786 14 707 54 c 5
 673 122 587 186 507 241 c 5
 452 144 366 83 239 36 c 5
 230 50 l 5
 388 123 458 247 488 390 c 5
876 819 m 5
 876 819 934 775 970 741 c 5
 968 730 958 725 943 725 c 6
 563 725 l 5
 560 688 557 648 548 608 c 5
 796 608 l 5
 833 648 l 5
 912 586 l 5
 907 578 890 570 870 566 c 5
 870 -53 l 6
 869 -60 838 -77 815 -77 c 6
 806 -77 l 5
 806 -2 l 5
 199 -2 l 5
 199 -55 l 6
 199 -63 174 -80 145 -80 c 6
 134 -80 l 5
 134 642 l 5
 206 608 l 5
 481 608 l 5
 489 648 492 687 493 725 c 5
 69 725 l 5
 60 755 l 5
 824 755 l 5
 876 819 l 5
806 579 m 5
 543 579 l 5
 538 561 531 543 523 526 c 5
 814 445 800 295 724 329 c 5
 689 392 593 461 514 507 c 5
 475 434 399 369 264 311 c 5
 251 327 l 5
 379 390 450 488 475 579 c 5
 199 579 l 5
 199 28 l 5
 806 28 l 5
 806 579 l 5
EndSplineSet
EndChar

StartChar: uni4E1E
Encoding: 39 19998 40
Width: 1000
Flags: H
LayerCount: 2
Fore
SplineSet
347 567 m 1
 418 504 l 1
 410 496 400 493 377 491 c 1
 326 334 224 179 46 82 c 1
 36 97 l 1
 173 194 266 346 309 499 c 1
 81 499 l 1
 72 528 l 1
 306 528 l 1
 347 567 l 1
765 -8 m 1
 815 55 l 1
 815 55 873 11 909 -21 c 1
 906 -32 896 -36 882 -36 c 2
 108 -36 l 1
 99 -8 l 1
 765 -8 l 1
835 631 m 1
 921 575 l 1
 914 565 905 562 883 568 c 1
 824 517 724 442 630 387 c 1
 719 269 842 202 963 160 c 1
 961 149 l 1
 934 144 914 124 905 92 c 1
 734 177 600 294 532 545 c 1
 532 129 l 2
 532 76 520 45 422 35 c 1
 419 53 413 69 397 80 c 0
 380 90 353 98 302 104 c 1
 302 120 l 1
 302 120 419 112 442 112 c 0
 462 112 467 118 467 133 c 2
 467 636 l 1
 527 629 l 1
 579 661 636 706 676 743 c 1
 191 743 l 1
 182 773 l 1
 695 773 l 1
 738 814 l 1
 812 746 l 1
 804 739 792 738 771 737 c 1
 714 702 631 656 554 626 c 1
 564 625 l 1
 562 612 555 604 532 600 c 1
 551 523 581 458 618 404 c 1
 696 472 788 568 835 631 c 1
EndSplineSet
EndChar

StartChar: uni4E1F
Encoding: 40 19999 41
Width: 1000
Flags: H
LayerCount: 2
Fore
SplineSet
799 394 m 1
 852 459 l 1
 852 459 911 414 948 380 c 1
 945 370 936 365 921 365 c 2
 478 365 l 1
 429 260 357 135 293 53 c 1
 424 60 589 71 763 84 c 1
 713 148 650 209 596 253 c 1
 607 263 l 1
 973 99 934 -120 843 -58 c 1
 832 -20 809 21 779 62 c 1
 634 37 434 10 151 -27 c 1
 145 -38 135 -44 126 -47 c 1
 77 43 l 1
 121 44 182 47 257 51 c 1
 303 136 355 269 383 365 c 1
 65 365 l 1
 57 394 l 1
 464 394 l 1
 464 554 l 1
 172 554 l 1
 164 584 l 1
 464 584 l 1
 464 734 l 1
 107 734 l 1
 98 764 l 1
 763 764 l 1
 815 828 l 1
 815 828 873 784 909 750 c 1
 907 739 896 734 882 734 c 2
 532 734 l 1
 532 584 l 1
 707 584 l 1
 757 647 l 1
 757 647 814 603 850 570 c 1
 847 559 836 554 822 554 c 2
 532 554 l 1
 532 394 l 1
 799 394 l 1
EndSplineSet
EndChar

StartChar: u20018
Encoding: 41 131096 42
Width: 1000
Flags: H
LayerCount: 2
Fore
SplineSet
939 184 m 5
 943 22 l 5
 966 13 971 4 971 -10 c 4
 971 -40 938 -52 791 -52 c 6
 693 -52 l 6
 617 -52 596 -33 596 23 c 6
 596 365 l 5
 394 365 l 5
 387 110 302 -26 54 -86 c 5
 46 -74 l 5
 247 7 322 147 326 365 c 5
 67 365 l 5
 59 394 l 5
 819 394 l 5
 870 457 l 5
 870 457 927 414 964 381 c 5
 961 370 951 365 937 365 c 6
 662 365 l 5
 662 347 l 5
 662 41 l 6
 662 20 667 11 705 11 c 6
 791 11 l 6
 831 11 858 12 871 14 c 4
 882 16 885 18 890 31 c 4
 898 53 909 104 926 184 c 5
 939 184 l 5
913 644 m 5
 919 534 l 5
 942 525 945 515 945 501 c 4
 945 471 923 459 776 459 c 6
 687 459 l 6
 611 459 590 478 590 534 c 6
 590 728 l 5
 401 728 l 5
 389 522 234 425 53 402 c 5
 43 414 l 5
 226 480 310 579 333 728 c 5
 85 728 l 5
 77 757 l 5
 805 757 l 5
 856 820 l 5
 975 730 949 744 950 744 c 4
 947 733 937 728 923 728 c 6
 656 728 l 5
 656 712 l 5
 656 552 l 6
 656 531 661 522 699 522 c 6
 776 522 l 6
 816 522 837 523 850 525 c 4
 861 527 867 530 872 540 c 4
 878 553 889 593 902 644 c 5
 913 644 l 5
EndSplineSet
EndChar

StartChar: u20019
Encoding: 42 131097 43
Width: 1000
Flags: H
LayerCount: 2
Fore
SplineSet
393 602 m 1
 427 643 l 1
 509 579 l 1
 502 572 486 563 465 560 c 1
 465 15 l 2
 465 -35 455 -65 376 -73 c 1
 375 -54 370 -38 359 -29 c 0
 348 -20 330 -12 295 -8 c 1
 295 9 l 1
 295 9 367 2 384 2 c 0
 399 2 403 8 403 22 c 2
 403 572 l 1
 185 572 l 1
 185 -51 l 2
 185 -59 161 -75 133 -75 c 2
 123 -75 l 1
 123 634 l 1
 189 602 l 1
 393 602 l 1
832 602 m 1
 866 643 l 1
 947 579 l 1
 940 572 924 563 904 560 c 1
 904 16 l 2
 904 -34 894 -64 814 -73 c 1
 812 -54 808 -38 797 -29 c 0
 785 -19 767 -11 732 -7 c 1
 732 9 l 1
 732 9 805 3 822 3 c 0
 838 3 842 9 842 23 c 2
 842 572 l 1
 623 572 l 1
 623 -51 l 2
 623 -59 599 -75 572 -75 c 2
 561 -75 l 1
 561 634 l 1
 628 602 l 1
 832 602 l 1
385 759 m 1
 435 824 l 1
 435 824 493 779 528 745 c 1
 525 734 515 729 501 729 c 2
 69 729 l 1
 60 759 l 1
 385 759 l 1
825 759 m 1
 875 824 l 1
 875 824 933 779 968 745 c 1
 965 734 955 729 941 729 c 2
 545 729 l 1
 536 759 l 1
 825 759 l 1
EndSplineSet
EndChar

StartChar: uni4E23
Encoding: 43 20003 44
Width: 1000
Flags: H
LayerCount: 2
Fore
SplineSet
820 550 m 1
 629 550 l 1
 629 267 l 1
 820 267 l 1
 820 550 l 1
183 267 m 1
 345 267 l 1
 355 317 358 370 358 426 c 2
 358 550 l 1
 183 550 l 1
 183 267 l 1
831 763 m 1
 876 819 l 1
 876 819 928 779 960 749 c 1
 957 738 948 733 934 733 c 2
 629 733 l 1
 629 579 l 1
 810 579 l 1
 846 619 l 1
 924 558 l 1
 918 551 903 542 885 540 c 1
 885 195 l 2
 884 189 852 173 830 173 c 2
 820 173 l 1
 820 238 l 1
 629 238 l 1
 629 -57 l 2
 629 -62 608 -79 575 -79 c 2
 564 -79 l 1
 564 733 l 1
 423 733 l 1
 423 428 l 2
 423 220 379 34 100 -80 c 1
 89 -66 l 1
 241 19 310 120 339 238 c 1
 183 238 l 1
 183 197 l 2
 183 190 155 174 128 174 c 2
 117 174 l 1
 117 611 l 1
 187 579 l 1
 358 579 l 1
 358 733 l 1
 56 733 l 1
 47 763 l 1
 831 763 l 1
EndSplineSet
EndChar

StartChar: u20021
Encoding: 44 131105 45
Width: 1000
Flags: H
LayerCount: 2
Fore
SplineSet
932 740 m 2
 60 740 l 1
 51 770 l 1
 816 770 l 1
 866 835 l 1
 866 835 924 790 959 756 c 1
 956 745 946 740 932 740 c 2
943 184 m 1
 946 19 l 1
 967 11 972 3 972 -11 c 0
 972 -41 942 -53 785 -53 c 2
 679 -53 l 2
 599 -53 582 -37 582 15 c 2
 582 299 l 1
 429 299 l 1
 405 89 284 -25 54 -80 c 1
 48 -64 l 1
 256 11 331 135 353 299 c 1
 86 299 l 1
 79 328 l 1
 475 328 l 1
 475 514 l 1
 268 514 l 1
 229 445 194 403 141 360 c 1
 127 370 l 1
 197 448 250 572 260 702 c 1
 362 674 l 1
 358 661 346 652 325 653 c 1
 311 612 300 580 284 543 c 1
 475 543 l 1
 475 721 l 1
 579 710 l 1
 576 696 567 686 543 682 c 1
 543 543 l 1
 724 543 l 1
 774 605 l 1
 774 605 829 563 865 529 c 1
 863 519 853 514 839 514 c 2
 543 514 l 1
 543 328 l 1
 810 328 l 1
 862 392 l 1
 862 392 920 348 955 315 c 1
 953 304 943 299 929 299 c 2
 647 299 l 1
 647 294 l 1
 647 30 l 2
 647 13 651 8 689 8 c 2
 786 8 l 2
 830 8 864 9 877 10 c 0
 889 11 892 15 897 26 c 0
 905 45 917 113 929 184 c 1
 943 184 l 1
EndSplineSet
EndChar

StartChar: u20022
Encoding: 45 131106 46
Width: 1000
Flags: H
LayerCount: 2
Fore
SplineSet
463 408 m 5
 510 474 l 5
 510 474 564 428 596 395 c 5
 593 384 583 379 569 379 c 6
 388 379 l 5
 388 82 l 5
 441 93 519 110 572 123 c 5
 576 106 l 5
 464 67 322 20 118 -47 c 5
 114 -60 105 -69 95 -72 c 5
 50 16 l 5
 73 19 117 27 144 32 c 5
 144 513 l 5
 241 502 l 5
 239 489 230 479 207 476 c 5
 207 45 l 5
 255 53 267 56 324 68 c 5
 324 717 l 5
 424 705 l 5
 422 691 413 681 388 677 c 5
 388 408 l 5
 463 408 l 5
937 203 m 5
 940 27 l 5
 963 18 969 10 969 -4 c 4
 969 -34 934 -47 793 -47 c 6
 702 -47 l 6
 626 -47 605 -27 605 31 c 6
 605 717 l 5
 706 705 l 5
 704 692 695 681 670 677 c 5
 670 376 l 5
 739 420 818 484 882 551 c 5
 960 478 l 5
 951 470 940 468 921 477 c 5
 842 422 749 377 670 349 c 5
 670 50 l 6
 670 26 677 17 714 17 c 6
 793 17 l 6
 831 17 859 18 872 19 c 4
 881 20 886 24 891 33 c 4
 898 51 912 131 923 203 c 5
 937 203 l 5
932 736 m 6
 60 736 l 5
 51 766 l 5
 816 766 l 5
 866 831 l 5
 866 831 924 786 959 752 c 5
 956 741 946 736 932 736 c 6
EndSplineSet
EndChar

StartChar: uni4E26
Encoding: 46 20006 47
Width: 1000
Flags: H
LayerCount: 2
Fore
SplineSet
245 829 m 1
 257 836 l 1
 476 734 416 578 346 633 c 1
 337 698 288 779 245 829 c 1
428 571 m 1
 428 -7 l 1
 566 -7 l 1
 566 571 l 1
 428 571 l 1
813 -7 m 1
 864 56 l 1
 864 56 923 12 959 -21 c 1
 956 -32 947 -36 932 -36 c 2
 50 -36 l 1
 42 -7 l 1
 363 -7 l 1
 363 571 l 1
 87 571 l 1
 78 601 l 1
 568 601 l 1
 608 670 651 766 676 837 c 1
 782 807 l 1
 777 795 766 788 743 788 c 1
 709 732 651 658 595 601 c 1
 785 601 l 1
 835 663 l 1
 835 663 892 620 928 587 c 1
 925 576 915 571 901 571 c 2
 631 571 l 1
 631 -7 l 1
 813 -7 l 1
149 469 m 1
 165 473 l 1
 351 256 292 73 224 143 c 1
 226 244 185 378 149 469 c 1
700 98 m 1
 683 106 l 1
 716 205 757 358 784 488 c 1
 890 458 l 1
 887 447 875 438 854 437 c 1
 812 320 756 189 700 98 c 1
EndSplineSet
EndChar

StartChar: u2002E
Encoding: 48 131118 48
Width: 1000
Flags: H
LayerCount: 2
Fore
SplineSet
626 464 m 1
 726 438 l 1
 720 426 710 421 686 425 c 1
 655 364 633 332 584 268 c 1
 802 75 711 41 650 72 c 1
 607 139 590 162 540 214 c 1
 463 146 418 106 276 41 c 1
 266 54 l 1
 363 112 441 182 504 259 c 1
 439 322 378 365 300 415 c 1
 310 429 l 1
 430 379 456 364 538 307 c 1
 574 354 609 418 626 464 c 1
244 17 m 1
 764 17 l 1
 764 490 l 1
 244 490 l 1
 244 17 l 1
763 520 m 1
 799 563 l 1
 877 501 l 1
 870 493 857 486 834 473 c 1
 834 -61 l 1
 834 -61 809 -73 779 -73 c 2
 769 -73 l 1
 769 -13 l 1
 249 -13 l 1
 249 -58 l 2
 249 -64 228 -80 195 -80 c 1
 185 -90 l 1
 185 542 l 1
 261 520 l 1
 763 520 l 1
54 513 m 1
 46 528 l 1
 160 575 290 661 350 723 c 1
 441 672 l 1
 433 662 418 659 393 664 c 1
 315 612 180 547 54 513 c 1
647 688 m 1
 654 704 l 1
 1082 619 976 471 909 527 c 1
 861 578 771 637 647 688 c 1
825 765 m 1
 876 827 l 1
 876 827 933 784 968 751 c 1
 965 740 956 735 941 735 c 2
 59 735 l 1
 51 765 l 1
 825 765 l 1
EndSplineSet
EndChar

StartChar: u20041
Encoding: 49 131137 49
Width: 1000
Flags: H
LayerCount: 2
Fore
SplineSet
877 57 m 1
 877 57 935 12 972 -21 c 1
 969 -32 960 -36 946 -36 c 2
 61 -36 l 1
 53 -8 l 1
 368 -8 l 1
 368 198 l 1
 179 198 l 1
 179 154 l 2
 179 148 152 132 125 132 c 2
 114 132 l 1
 114 461 l 1
 184 430 l 1
 368 430 l 1
 368 559 l 1
 205 559 l 1
 205 534 l 2
 205 530 173 517 150 517 c 2
 142 517 l 1
 142 813 l 1
 210 786 l 1
 368 786 l 1
 399 819 l 1
 466 767 l 1
 460 760 447 753 431 750 c 1
 431 361 l 2
 431 356 410 343 378 343 c 2
 368 343 l 1
 368 400 l 1
 179 400 l 1
 179 228 l 1
 358 228 l 1
 395 267 l 1
 473 207 l 1
 467 199 451 191 431 187 c 1
 431 -8 l 1
 584 -8 l 1
 584 258 l 1
 660 226 l 1
 839 226 l 1
 839 400 l 1
 647 400 l 1
 647 362 l 2
 647 358 627 345 594 345 c 2
 584 345 l 1
 584 814 l 1
 644 786 l 1
 808 786 l 1
 844 819 l 1
 912 767 l 1
 907 759 893 752 877 749 c 1
 877 542 l 2
 876 535 843 522 824 522 c 2
 816 522 l 1
 816 560 l 1
 647 560 l 1
 647 430 l 1
 830 430 l 1
 866 470 l 1
 947 408 l 1
 941 400 925 392 905 388 c 1
 905 166 l 2
 904 159 871 145 849 145 c 2
 839 145 l 1
 839 196 l 1
 647 196 l 1
 647 -8 l 1
 825 -8 l 1
 877 57 l 1
647 756 m 1
 647 589 l 1
 816 589 l 1
 816 756 l 1
 647 756 l 1
205 588 m 1
 368 588 l 1
 368 756 l 1
 205 756 l 1
 205 588 l 1
EndSplineSet
EndChar

StartChar: u20055
Encoding: 50 131157 50
Width: 1000
Flags: H
LayerCount: 2
Fore
SplineSet
822 -24 m 5
 871 38 l 5
 871 38 927 -6 962 -36 c 5
 959 -47 949 -52 934 -52 c 6
 70 -52 l 5
 62 -24 l 5
 388 -24 l 5
 388 79 l 5
 248 79 l 5
 248 60 l 6
 248 55 221 40 196 40 c 6
 187 40 l 5
 187 278 l 5
 253 249 l 5
 388 249 l 5
 388 337 l 5
 211 337 l 5
 203 367 l 5
 695 367 l 5
 737 416 l 5
 737 416 785 381 815 353 c 5
 812 342 803 337 790 337 c 6
 617 337 l 5
 617 249 l 5
 750 249 l 5
 783 284 l 5
 855 230 l 5
 850 223 837 216 820 213 c 5
 820 73 l 6
 819 68 788 56 768 56 c 6
 758 56 l 5
 758 76 l 5
 617 76 l 5
 617 -24 l 5
 822 -24 l 5
554 -24 m 5
 554 131 l 5
 629 105 l 5
 758 105 l 5
 758 220 l 5
 617 220 l 5
 617 196 l 6
 617 192 596 178 564 178 c 6
 554 178 l 5
 554 337 l 5
 451 337 l 5
 451 188 l 6
 451 184 430 172 398 172 c 6
 388 172 l 5
 388 220 l 5
 248 220 l 5
 248 108 l 5
 380 108 l 5
 414 138 l 5
 487 88 l 5
 481 82 467 74 451 71 c 5
 451 -24 l 5
 554 -24 l 5
130 319 m 4
 106 304 72 304 61 325 c 5
 54 347 67 366 87 377 c 4
 125 396 159 448 156 506 c 5
 174 506 l 5
 182 480 183 465 183 462 c 5
 476 462 l 5
 476 530 l 5
 275 530 l 5
 275 511 l 6
 275 506 247 492 222 492 c 6
 213 492 l 5
 213 694 l 5
 281 665 l 5
 476 665 l 5
 476 719 l 5
 102 719 l 5
 93 748 l 5
 476 748 l 5
 476 829 l 5
 579 818 l 5
 577 804 567 794 543 791 c 5
 543 748 l 5
 805 748 l 5
 851 802 l 5
 851 802 902 764 935 735 c 5
 932 724 923 719 909 719 c 6
 543 719 l 5
 543 665 l 5
 734 665 l 5
 768 699 l 5
 842 644 l 5
 836 638 822 630 806 627 c 5
 806 520 l 6
 805 513 774 498 753 498 c 6
 743 498 l 5
 743 530 l 5
 543 530 l 5
 543 462 l 5
 854 462 l 5
 895 503 l 5
 969 431 l 5
 962 424 951 422 932 421 c 5
 909 393 870 354 838 331 c 5
 824 338 l 5
 835 363 849 402 858 433 c 5
 185 433 l 5
 183 375 157 337 130 319 c 4
543 635 m 5
 543 559 l 5
 743 559 l 5
 743 635 l 5
 543 635 l 5
275 559 m 5
 476 559 l 5
 476 635 l 5
 275 635 l 5
 275 559 l 5
EndSplineSet
EndChar

StartChar: NameMe.51
Encoding: 51 -1 51
Width: 1000
Flags: H
LayerCount: 2
Fore
SplineSet
460 819 m 1
 564 808 l 1
 562 794 554 784 529 780 c 1
 529 -49 l 2
 529 -59 499 -77 474 -77 c 2
 460 -77 l 1
 460 819 l 1
EndSplineSet
EndChar

StartChar: uni4E29
Encoding: 52 20009 52
Width: 1000
Flags: H
LayerCount: 2
Fore
SplineSet
751 834 m 1
 850 823 l 1
 848 810 840 799 816 796 c 1
 816 -48 l 2
 816 -59 788 -77 764 -77 c 2
 751 -77 l 1
 751 240 l 1
 680 208 586 167 463 118 c 1
 459 106 452 98 443 95 c 1
 397 174 l 1
 415 177 440 183 469 190 c 1
 469 729 l 1
 567 719 l 1
 564 705 557 698 535 694 c 1
 535 206 l 1
 598 222 674 242 751 263 c 1
 751 834 l 1
EndSplineSet
EndChar

StartChar: u20061
Encoding: 53 131169 53
Width: 1000
Flags: H
LayerCount: 2
Fore
SplineSet
786 741 m 1
 866 677 l 1
 861 669 844 661 824 657 c 1
 824 105 l 2
 823 99 791 82 768 82 c 2
 758 82 l 1
 758 670 l 1
 546 670 l 1
 546 -37 l 2
 546 -48 518 -66 494 -66 c 2
 481 -66 l 1
 481 251 l 1
 481 274 l 1
 481 845 l 1
 580 834 l 1
 578 821 570 810 546 807 c 1
 546 699 l 1
 748 699 l 1
 786 741 l 1
EndSplineSet
EndChar

StartChar: uni4E2A
Encoding: 54 20010 54
Width: 1000
Flags: H
LayerCount: 2
Fore
SplineSet
463 561 m 1
 568 549 l 1
 565 535 556 525 531 522 c 1
 531 -57 l 2
 531 -66 501 -81 476 -81 c 2
 463 -81 l 1
 463 561 l 1
508 777 m 1
 420 627 244 450 42 348 c 1
 35 363 l 1
 213 481 388 679 452 838 c 1
 567 808 l 1
 563 796 553 791 526 788 c 1
 623 649 779 519 964 440 c 1
 963 425 l 1
 932 417 913 394 903 367 c 1
 729 469 587 614 508 777 c 1
EndSplineSet
EndChar

StartChar: uni4E2B
Encoding: 55 20011 55
Width: 1000
Flags: H
LayerCount: 2
Fore
SplineSet
157 819 m 1
 168 828 l 1
 506 694 484 532 404 574 c 1
 360 649 241 756 157 819 c 1
784 839 m 1
 874 781 l 1
 867 771 857 768 835 775 c 1
 767 713 653 626 543 560 c 1
 568 557 l 1
 565 543 556 533 531 529 c 1
 531 -55 l 2
 531 -64 501 -80 476 -80 c 2
 463 -80 l 1
 463 568 l 1
 510 563 l 1
 609 646 724 762 784 839 c 1
EndSplineSet
EndChar

StartChar: uni3404
Encoding: 56 13316 56
Width: 1000
Flags: H
LayerCount: 2
Fore
SplineSet
931 235 m 5
 929 224 920 219 906 219 c 6
 607 219 l 5
 607 -60 l 6
 607 -69 579 -84 555 -84 c 6
 541 -84 l 5
 541 219 l 5
 234 219 l 5
 229 194 222 165 218 145 c 5
 205 136 179 133 151 141 c 5
 173 237 208 421 220 517 c 5
 316 506 l 5
 314 493 304 481 278 479 c 5
 269 422 253 327 239 248 c 5
 541 248 l 5
 541 600 l 5
 132 600 l 5
 123 630 l 5
 541 630 l 5
 541 833 l 5
 643 821 l 5
 640 807 632 797 607 793 c 5
 607 630 l 5
 792 630 l 5
 836 685 l 5
 836 685 887 646 918 616 c 5
 915 605 906 600 893 600 c 6
 607 600 l 5
 607 248 l 5
 813 248 l 5
 855 301 l 5
 855 301 902 263 931 235 c 5
EndSplineSet
EndChar

StartChar: uni4E2D
Encoding: 57 20013 57
Width: 1000
Flags: H
LayerCount: 2
Fore
SplineSet
530 335 m 1
 821 335 l 1
 821 599 l 1
 530 599 l 1
 530 335 l 1
172 335 m 1
 463 335 l 1
 463 599 l 1
 172 599 l 1
 172 335 l 1
849 670 m 1
 931 606 l 1
 925 598 909 590 889 586 c 1
 889 243 l 2
 888 237 854 222 832 222 c 2
 821 222 l 1
 821 305 l 1
 530 305 l 1
 530 -51 l 2
 530 -61 501 -78 476 -78 c 2
 463 -78 l 1
 463 305 l 1
 172 305 l 1
 172 233 l 2
 172 226 145 211 117 211 c 2
 107 211 l 1
 107 662 l 1
 179 628 l 1
 463 628 l 1
 463 839 l 1
 566 827 l 1
 564 813 556 803 530 799 c 1
 530 628 l 1
 811 628 l 1
 849 670 l 1
EndSplineSet
EndChar

StartChar: u20067
Encoding: 58 131175 58
Width: 1000
Flags: H
LayerCount: 2
Fore
SplineSet
842 391 m 6
 831 391 l 5
 831 442 l 5
 540 442 l 5
 540 304 l 5
 821 304 l 5
 854 339 l 5
 926 285 l 5
 921 278 908 271 891 268 c 5
 891 90 l 6
 890 85 859 73 839 73 c 6
 829 73 l 5
 829 93 l 5
 540 93 l 5
 540 -61 l 6
 540 -71 511 -88 486 -88 c 6
 473 -88 l 5
 473 148 l 5
 552 122 l 5
 829 122 l 5
 829 275 l 5
 540 275 l 5
 540 245 l 6
 540 241 515 227 483 227 c 6
 473 227 l 5
 473 442 l 5
 182 442 l 5
 182 394 l 6
 182 387 155 358 127 358 c 6
 117 358 l 5
 117 707 l 5
 189 673 l 5
 473 673 l 5
 473 839 l 5
 576 827 l 5
 574 813 566 803 540 799 c 5
 540 673 l 5
 821 673 l 5
 859 715 l 5
 941 650 l 5
 935 642 919 635 899 631 c 5
 899 412 l 6
 898 406 864 391 842 391 c 6
182 472 m 5
 473 472 l 5
 473 644 l 5
 182 644 l 5
 182 472 l 5
540 472 m 5
 831 472 l 5
 831 644 l 5
 540 644 l 5
 540 472 l 5
EndSplineSet
EndChar

StartChar: u20069
Encoding: 59 131177 59
Width: 1000
Flags: H
LayerCount: 2
Fore
SplineSet
540 362 m 5
 831 362 l 5
 831 500 l 5
 540 500 l 5
 540 362 l 5
182 362 m 5
 473 362 l 5
 473 500 l 5
 182 500 l 5
 182 362 l 5
859 571 m 5
 941 507 l 5
 935 499 919 491 899 487 c 5
 899 310 l 6
 898 304 864 289 842 289 c 6
 831 289 l 5
 831 332 l 5
 540 332 l 5
 540 -51 l 6
 540 -61 511 -78 486 -78 c 6
 473 -78 l 5
 473 332 l 5
 182 332 l 5
 182 294 l 6
 182 287 155 272 127 272 c 6
 117 272 l 5
 117 563 l 5
 189 529 l 5
 473 529 l 5
 473 839 l 5
 576 827 l 5
 574 813 566 803 540 799 c 5
 540 529 l 5
 821 529 l 5
 859 571 l 5
747 233 m 5
 797 291 l 5
 797 291 853 252 888 220 c 5
 886 209 876 204 862 204 c 6
 557 204 l 5
 550 233 l 5
 747 233 l 5
755 122 m 5
 805 181 l 5
 805 181 861 141 896 109 c 5
 894 98 884 93 870 93 c 6
 561 93 l 5
 554 122 l 5
 755 122 l 5
327 738 m 5
 377 796 l 5
 377 796 433 757 468 725 c 5
 466 714 456 709 442 709 c 6
 138 709 l 5
 131 738 l 5
 327 738 l 5
324 628 m 5
 374 687 l 5
 374 687 430 647 465 615 c 5
 463 604 453 599 439 599 c 6
 133 599 l 5
 126 628 l 5
 324 628 l 5
EndSplineSet
EndChar

StartChar: uni4E2E
Encoding: 60 20014 60
Width: 1000
Flags: H
LayerCount: 2
Fore
SplineSet
592 271 m 1
 639 332 l 1
 639 332 693 289 725 257 c 1
 722 246 713 241 699 241 c 2
 424 241 l 1
 424 -52 l 2
 424 -62 396 -78 372 -78 c 2
 359 -78 l 1
 359 241 l 1
 90 241 l 1
 82 271 l 1
 359 271 l 1
 359 474 l 1
 106 474 l 1
 98 504 l 1
 359 504 l 1
 359 698 l 1
 459 687 l 1
 458 673 450 662 424 658 c 1
 424 504 l 1
 568 504 l 1
 615 565 l 1
 615 565 669 522 701 490 c 1
 699 479 688 474 675 474 c 2
 424 474 l 1
 424 271 l 1
 592 271 l 1
957 163 m 1
 942 0 l 1
 960 -36 965 -59 953 -69 c 0
 927 -89 888 -65 859 -28 c 1
 742 92 734 436 735 742 c 1
 86 742 l 1
 77 771 l 1
 725 771 l 1
 765 814 l 1
 847 743 l 1
 840 736 826 729 803 726 c 1
 793 490 805 137 894 47 c 0
 904 38 909 39 914 52 c 0
 926 91 936 129 945 165 c 1
 957 163 l 1
EndSplineSet
EndChar

StartChar: uni4E2F
Encoding: 61 20015 61
Width: 1000
Flags: H
LayerCount: 2
Fore
SplineSet
822 358 m 1
 894 287 l 1
 884 279 871 279 850 290 c 1
 749 245 642 210 532 182 c 1
 532 -51 l 2
 532 -62 503 -78 478 -78 c 2
 465 -78 l 1
 465 167 l 1
 346 140 223 122 102 109 c 1
 98 128 l 1
 218 150 343 176 465 212 c 1
 465 392 l 1
 367 369 267 352 170 339 c 1
 164 359 l 1
 260 379 364 404 465 437 c 1
 465 598 l 1
 356 573 244 554 138 542 c 1
 131 560 l 1
 237 582 353 610 465 646 c 1
 465 834 l 1
 567 822 l 1
 564 808 556 798 532 794 c 1
 532 668 l 1
 603 692 672 720 735 752 c 1
 806 685 l 1
 796 678 784 678 764 687 c 1
 691 659 613 635 532 614 c 1
 532 459 l 1
 610 487 685 518 753 555 c 1
 824 490 l 1
 814 482 802 482 783 490 c 1
 704 458 619 431 532 408 c 1
 532 233 l 1
 634 267 732 308 822 358 c 1
EndSplineSet
EndChar

StartChar: uni4E30
Encoding: 62 20016 62
Width: 1000
Flags: H
LayerCount: 2
Fore
SplineSet
827 215 m 1
 878 282 l 1
 878 282 937 236 973 203 c 1
 970 192 960 187 947 187 c 2
 532 187 l 1
 532 -50 l 2
 532 -60 503 -78 477 -78 c 2
 464 -78 l 1
 464 187 l 1
 51 187 l 1
 43 215 l 1
 464 215 l 1
 464 418 l 1
 142 418 l 1
 134 448 l 1
 464 448 l 1
 464 634 l 1
 93 634 l 1
 85 663 l 1
 464 663 l 1
 464 839 l 1
 567 827 l 1
 565 813 557 803 532 799 c 1
 532 663 l 1
 786 663 l 1
 835 727 l 1
 835 727 892 682 926 650 c 1
 924 639 914 634 899 634 c 2
 532 634 l 1
 532 448 l 1
 745 448 l 1
 792 509 l 1
 792 509 848 466 881 434 c 1
 878 423 870 418 855 418 c 2
 532 418 l 1
 532 215 l 1
 827 215 l 1
EndSplineSet
EndChar

StartChar: u2BD6E
Encoding: 63 179566 63
Width: 1000
Flags: H
LayerCount: 2
Fore
SplineSet
983 178 m 1
 980 167 970 162 957 162 c 2
 747 162 l 1
 747 -50 l 2
 747 -60 718 -78 692 -78 c 2
 679 -78 l 1
 679 162 l 1
 526 162 l 1
 518 190 l 1
 679 190 l 1
 679 340 l 1
 526 340 l 1
 518 370 l 1
 679 370 l 1
 679 531 l 1
 574 531 l 1
 574 475 l 2
 574 466 546 450 521 450 c 2
 508 450 l 1
 508 737 l 1
 610 726 l 1
 608 712 600 702 574 699 c 1
 574 560 l 1
 679 560 l 1
 679 839 l 1
 782 827 l 1
 780 813 772 803 747 799 c 1
 747 560 l 1
 854 560 l 1
 854 737 l 1
 956 726 l 1
 954 712 944 703 919 699 c 1
 919 497 l 2
 919 490 890 477 866 477 c 2
 854 477 l 1
 854 531 l 1
 747 531 l 1
 747 370 l 1
 805 370 l 1
 852 431 l 1
 852 431 908 388 941 356 c 1
 938 345 930 340 915 340 c 2
 747 340 l 1
 747 190 l 1
 837 190 l 1
 888 257 l 1
 888 257 947 211 983 178 c 1
507 178 m 1
 504 167 494 162 481 162 c 2
 300 162 l 1
 300 -50 l 2
 300 -60 271 -78 245 -78 c 2
 232 -78 l 1
 232 162 l 1
 61 162 l 1
 53 190 l 1
 232 190 l 1
 232 340 l 1
 92 340 l 1
 84 370 l 1
 232 370 l 1
 232 531 l 1
 140 531 l 1
 140 475 l 2
 140 466 112 450 87 450 c 2
 74 450 l 1
 74 737 l 1
 176 726 l 1
 174 712 166 702 140 699 c 1
 140 560 l 1
 232 560 l 1
 232 839 l 1
 335 827 l 1
 333 813 325 803 300 799 c 1
 300 560 l 1
 388 560 l 1
 388 737 l 1
 490 726 l 1
 488 712 478 703 453 699 c 1
 453 497 l 2
 453 490 424 477 400 477 c 2
 388 477 l 1
 388 531 l 1
 300 531 l 1
 300 370 l 1
 354 370 l 1
 401 431 l 1
 401 431 457 388 490 356 c 1
 487 345 479 340 464 340 c 2
 300 340 l 1
 300 190 l 1
 361 190 l 1
 412 257 l 1
 412 257 471 211 507 178 c 1
EndSplineSet
EndChar

StartChar: uni4E31
Encoding: 64 20017 64
Width: 1000
Flags: H
LayerCount: 2
Fore
SplineSet
355 370 m 2
 355 826 l 1
 454 815 l 1
 452 801 444 791 419 788 c 1
 419 370 l 2
 418 160 346 12 106 -77 c 1
 96 -63 l 1
 257 15 328 120 349 267 c 1
 182 267 l 1
 182 188 l 2
 182 179 153 164 129 164 c 2
 117 164 l 1
 117 721 l 1
 217 710 l 1
 214 698 207 688 182 685 c 1
 182 296 l 1
 352 296 l 1
 354 320 355 344 355 370 c 2
828 722 m 1
 930 711 l 1
 928 698 919 688 893 684 c 1
 893 199 l 2
 893 191 866 175 840 175 c 2
 828 175 l 1
 828 267 l 1
 644 267 l 1
 644 -50 l 2
 644 -60 617 -77 592 -77 c 2
 579 -77 l 1
 579 828 l 1
 681 817 l 1
 678 803 670 792 644 789 c 1
 644 296 l 1
 828 296 l 1
 828 722 l 1
EndSplineSet
EndChar

StartChar: u20066
Encoding: 65 131174 65
Width: 1000
Flags: H
LayerCount: 2
Fore
SplineSet
859 679 m 1
 941 615 l 1
 935 607 919 599 899 595 c 1
 899 402 l 2
 898 396 864 381 842 381 c 2
 831 381 l 1
 831 424 l 1
 540 424 l 1
 540 297 l 1
 765 297 l 1
 815 355 l 1
 815 355 871 316 906 284 c 1
 904 273 894 268 880 268 c 2
 540 268 l 1
 540 152 l 1
 773 152 l 1
 823 211 l 1
 823 211 879 171 914 139 c 1
 912 128 902 123 888 123 c 2
 540 123 l 1
 540 -51 l 2
 540 -61 511 -78 486 -78 c 2
 473 -78 l 1
 473 424 l 1
 182 424 l 1
 182 386 l 2
 182 379 155 364 127 364 c 2
 117 364 l 1
 117 671 l 1
 189 637 l 1
 473 637 l 1
 473 839 l 1
 576 827 l 1
 574 813 566 803 540 799 c 1
 540 637 l 1
 821 637 l 1
 859 679 l 1
473 454 m 1
 473 608 l 1
 182 608 l 1
 182 454 l 1
 473 454 l 1
831 454 m 1
 831 608 l 1
 540 608 l 1
 540 454 l 1
 831 454 l 1
EndSplineSet
EndChar

StartChar: uni4E32
Encoding: 66 20018 66
Width: 1000
Flags: H
LayerCount: 2
Fore
SplineSet
533 165 m 1
 821 165 l 1
 821 331 l 1
 533 331 l 1
 533 165 l 1
180 165 m 1
 466 165 l 1
 466 331 l 1
 180 331 l 1
 180 165 l 1
228 518 m 1
 466 518 l 1
 466 678 l 1
 228 678 l 1
 228 518 l 1
775 678 m 1
 533 678 l 1
 533 518 l 1
 775 518 l 1
 775 678 l 1
848 401 m 1
 929 339 l 1
 923 331 906 323 886 319 c 1
 886 98 l 2
 885 91 852 77 831 77 c 2
 821 77 l 1
 821 135 l 1
 533 135 l 1
 533 -54 l 2
 533 -63 504 -79 479 -79 c 2
 466 -79 l 1
 466 135 l 1
 180 135 l 1
 180 87 l 2
 180 81 152 65 125 65 c 2
 116 65 l 1
 116 393 l 1
 187 361 l 1
 466 361 l 1
 466 489 l 1
 228 489 l 1
 228 453 l 2
 228 446 200 432 173 432 c 2
 164 432 l 1
 164 738 l 1
 235 707 l 1
 466 707 l 1
 466 838 l 1
 568 826 l 1
 565 812 557 802 533 798 c 1
 533 707 l 1
 765 707 l 1
 801 747 l 1
 882 685 l 1
 875 677 859 669 840 665 c 1
 840 462 l 2
 839 457 806 441 785 441 c 2
 775 441 l 1
 775 489 l 1
 533 489 l 1
 533 361 l 1
 811 361 l 1
 848 401 l 1
EndSplineSet
EndChar

StartChar: uni4E33
Encoding: 67 20019 67
Width: 1000
Flags: H
LayerCount: 2
Fore
SplineSet
635 174 m 1
 807 174 l 1
 807 338 l 1
 635 338 l 1
 635 174 l 1
408 174 m 1
 569 174 l 1
 569 338 l 1
 437 338 l 1
 434 279 425 224 408 174 c 1
193 174 m 1
 347 174 l 1
 363 224 371 278 373 338 c 1
 193 338 l 1
 193 174 l 1
438 383 m 1
 438 368 l 1
 569 368 l 1
 569 487 l 1
 438 487 l 1
 438 383 l 1
240 517 m 1
 374 517 l 1
 374 678 l 1
 240 678 l 1
 240 517 l 1
569 678 m 1
 438 678 l 1
 438 517 l 1
 569 517 l 1
 569 678 l 1
765 678 m 1
 635 678 l 1
 635 517 l 1
 765 517 l 1
 765 678 l 1
834 409 m 1
 915 346 l 1
 909 338 892 330 873 326 c 1
 873 124 l 2
 872 118 839 104 818 104 c 2
 807 104 l 1
 807 145 l 1
 635 145 l 1
 635 -55 l 2
 635 -63 607 -79 583 -79 c 2
 569 -79 l 1
 569 145 l 1
 397 145 l 1
 360 54 292 -21 177 -78 c 1
 165 -64 l 1
 252 -7 306 62 337 145 c 1
 193 145 l 1
 193 117 l 2
 193 110 165 96 139 96 c 2
 129 96 l 1
 129 401 l 1
 200 368 l 1
 374 368 l 1
 374 383 l 1
 374 487 l 1
 240 487 l 1
 240 453 l 2
 240 446 211 432 186 432 c 2
 176 432 l 1
 176 739 l 1
 247 707 l 1
 374 707 l 1
 374 836 l 1
 475 825 l 1
 472 811 464 801 438 797 c 1
 438 707 l 1
 569 707 l 1
 569 838 l 1
 671 826 l 1
 669 812 661 802 635 798 c 1
 635 707 l 1
 755 707 l 1
 793 748 l 1
 873 685 l 1
 867 677 850 669 831 665 c 1
 831 463 l 2
 830 457 798 440 776 440 c 2
 765 440 l 1
 765 487 l 1
 635 487 l 1
 635 368 l 1
 798 368 l 1
 834 409 l 1
EndSplineSet
EndChar

StartChar: u2006D
Encoding: 68 131181 68
Width: 1000
Flags: H
LayerCount: 2
Fore
SplineSet
466 691 m 5
 574 679 l 5
 571 665 562 655 537 652 c 5
 537 405 l 6
 537 396 504 381 479 381 c 6
 466 381 l 5
 466 691 l 5
517 782 m 5
 420 652 265 541 66 479 c 5
 59 494 l 5
 232 574 395 715 462 843 c 5
 577 813 l 5
 573 801 563 796 536 793 c 5
 620 690 789 597 962 576 c 5
 961 563 l 5
 931 559 914 536 909 505 c 5
 733 544 556 680 517 782 c 5
265 359 m 5
 370 347 l 5
 367 333 358 323 333 320 c 5
 333 -58 l 6
 333 -67 303 -82 278 -82 c 6
 265 -82 l 5
 265 359 l 5
309 473 m 5
 277 386 156 243 58 177 c 5
 49 188 l 5
 133 257 252 453 260 532 c 5
 375 502 l 5
 371 490 361 485 334 482 c 5
 364 418 444 338 540 317 c 5
 537 308 l 5
 506 303 492 290 488 262 c 5
 390 314 327 403 309 473 c 5
656 332 m 5
 763 320 l 5
 760 306 751 296 726 293 c 5
 726 -60 l 6
 726 -69 694 -84 669 -84 c 6
 656 -84 l 5
 656 332 l 5
704 480 m 5
 674 341 520 178 375 109 c 5
 367 123 l 5
 500 225 621 392 657 537 c 5
 769 507 l 5
 765 495 755 490 728 487 c 5
 735 411 889 245 981 215 c 5
 981 206 l 5
 959 206 933 187 926 161 c 5
 824 225 727 361 704 480 c 5
EndSplineSet
EndChar

StartChar: u2006E
Encoding: 69 131182 69
Width: 1000
Flags: H
LayerCount: 2
Fore
SplineSet
318 409 m 5
 306 419 l 5
 421 551 498 708 517 838 c 5
 622 805 l 5
 617 794 609 788 584 789 c 5
 573 757 558 721 541 685 c 5
 714 623 667 509 608 549 c 5
 597 586 563 629 529 662 c 5
 491 579 408 469 318 409 c 5
82 379 m 5
 70 390 l 5
 154 496 229 707 238 838 c 5
 343 821 l 5
 338 810 335 800 305 797 c 5
 296 767 279 709 267 680 c 5
 440 618 393 493 334 533 c 5
 325 576 295 628 261 661 c 5
 219 552 153 450 82 379 c 5
806 803 m 5
 802 651 872 534 958 476 c 5
 957 466 l 5
 934 470 908 462 895 442 c 5
 846 491 792 594 789 696 c 5
 767 590 690 496 584 452 c 5
 573 465 l 5
 702 551 749 665 753 836 c 5
 842 828 l 5
 837 817 833 806 806 803 c 5
480 184 m 5
 480 337 l 5
 423 329 227 305 176 301 c 5
 172 248 171 240 166 184 c 5
 480 184 l 5
480 155 m 5
 164 155 l 5
 162 135 161 120 159 102 c 5
 144 93 135 86 95 91 c 5
 101 154 113 290 117 357 c 5
 183 328 l 5
 234 335 434 369 480 380 c 5
 480 482 l 5
 568 472 l 5
 567 461 560 452 543 449 c 5
 543 392 l 5
 610 405 719 436 787 457 c 5
 863 392 l 5
 854 384 836 383 813 391 c 5
 741 378 623 356 543 345 c 5
 543 184 l 5
 831 184 l 5
 866 222 l 5
 939 163 l 5
 932 155 922 150 902 148 c 5
 896 -27 877 -50 843 -80 c 4
 821 -98 790 -107 758 -107 c 5
 758 -90 755 -73 743 -63 c 4
 732 -54 707 -44 666 -41 c 5
 666 -25 l 5
 695 -27 760 -31 772 -31 c 4
 787 -31 795 -29 802 -23 c 4
 819 -6 835 10 840 155 c 5
 543 155 l 5
 543 -135 l 6
 543 -143 517 -157 493 -157 c 6
 480 -157 l 5
 480 155 l 5
EndSplineSet
EndChar

StartChar: uni4E35
Encoding: 70 20021 70
Width: 1000
Flags: H
LayerCount: 2
Fore
SplineSet
822 565 m 1
 871 629 l 1
 871 629 927 584 960 552 c 1
 957 541 948 537 934 537 c 2
 683 537 l 1
 759 520 l 1
 755 508 743 499 721 498 c 1
 694 454 649 396 606 350 c 1
 759 350 l 1
 808 412 l 1
 808 412 867 369 901 337 c 1
 899 326 889 321 875 321 c 2
 533 321 l 1
 533 175 l 1
 793 175 l 1
 844 238 l 1
 844 238 901 195 937 162 c 1
 934 151 924 146 910 146 c 2
 533 146 l 1
 533 -57 l 2
 533 -61 511 -76 476 -76 c 2
 465 -76 l 1
 465 146 l 1
 95 146 l 1
 86 175 l 1
 465 175 l 1
 465 321 l 1
 124 321 l 1
 115 350 l 1
 581 350 l 1
 607 404 634 480 649 537 c 1
 300 537 l 1
 480 445 411 312 348 368 c 1
 345 422 312 491 283 536 c 1
 286 537 l 1
 61 537 l 1
 52 565 l 1
 222 565 l 1
 222 780 l 1
 315 770 l 1
 313 757 305 748 284 744 c 1
 284 565 l 1
 380 565 l 1
 380 835 l 1
 474 825 l 1
 472 812 464 803 442 799 c 1
 442 565 l 1
 550 565 l 1
 550 835 l 1
 644 825 l 1
 642 812 633 803 612 799 c 1
 612 565 l 1
 714 565 l 1
 714 780 l 1
 808 770 l 1
 806 757 797 748 776 744 c 1
 776 565 l 1
 822 565 l 1
EndSplineSet
EndChar

StartChar: u20070
Encoding: 71 131184 71
Width: 1000
Flags: HO
LayerCount: 2
Fore
SplineSet
363 458 m 1
 445 393 l 1
 439 385 423 378 403 374 c 1
 403 61 l 2
 402 55 368 40 346 40 c 2
 335 40 l 1
 335 93 l 1
 334 93 l 1
 83 93 l 1
 74 123 l 1
 334 123 l 1
 335 123 l 1
 335 244 l 1
 101 244 l 1
 93 273 l 1
 335 273 l 1
 335 387 l 1
 334 387 l 1
 87 387 l 1
 79 416 l 1
 325 416 l 1
 363 458 l 1
893 761 m 1
 893 761 949 718 982 686 c 1
 979 675 971 670 956 670 c 2
 542 670 l 1
 542 562 l 1
 733 562 l 1
 784 629 l 1
 784 629 843 583 879 550 c 1
 876 539 866 534 853 534 c 2
 542 534 l 1
 542 -50 l 2
 542 -60 513 -78 487 -78 c 2
 474 -78 l 1
 474 534 l 1
 191 534 l 1
 183 562 l 1
 474 562 l 1
 474 670 l 1
 61 670 l 1
 53 700 l 1
 474 700 l 1
 474 839 l 1
 577 827 l 1
 575 813 567 803 542 799 c 1
 542 700 l 1
 846 700 l 1
 893 761 l 1
815 123 m 1
 866 188 l 1
 866 188 925 142 961 109 c 1
 958 98 948 93 935 93 c 2
 677 93 l 1
 677 71 l 2
 677 64 650 43 622 43 c 2
 612 43 l 1
 612 449 l 1
 684 415 l 1
 804 415 l 1
 855 481 l 1
 855 481 914 435 950 402 c 1
 947 391 937 386 924 386 c 2
 677 386 l 1
 677 273 l 1
 799 273 l 1
 850 339 l 1
 850 339 909 293 945 260 c 1
 942 249 932 244 919 244 c 2
 677 244 l 1
 677 123 l 1
 815 123 l 1
EndSplineSet
EndChar
